# xmcd
#
# Track frame offsets:
#	150
#	14564
#	26875
#	42627
#	55370
#	68385
#	79401
#	92041
#	107147
#	121144
#	134905
#	150035
#	162509
#	175956
#	189817
#
# Disc length: 2717 seconds
#
# Revision: 1
# Processed by: cddbd v1.5.2PL0 Copyright (c) Steve Scherf et al.
# Submitted via: audiograbber 1.83.01
#
DISCID=c90a9b0f
DTITLE=Various Artist - The Blues Box CD3
DYEAR=2006
DGENRE=Blues
TTITLE0=Ma Rainey - Ma Rainey's Black Bottom
TTITLE1=Bertha 'Chippie' Hill - Trouble In Mind
TTITLE2=Bessie Smith - Gimmee a Pigfoot
TTITLE3=Barrelhouse Annie - If It Don't Fit (Don't Force It)
TTITLE4=Sister Rosetta Tharpe - I Want A Tall Skinny papa
TTITLE5=Ethel Waters - St. Louis Blues
TTITLE6=Memphis Minnee - Me And My Chauffeur
TTITLE7=Clara Smith - It's Tight Like That
TTITLE8=Victoria Spivey - Black Snake Blues
TTITLE9=Ida Cox - Death Letter Blues
TTITLE10=Mamie Smith - Crazy Blues
TTITLE11=Lil Green - How Come You Do Me Like You Do?
TTITLE12=Trixie Smith - Railroad Blues
TTITLE13=Albinia Jones - Fine And Mellow
TTITLE14=Sippie Wallace - Jack Of Diamonds Blues
EXTD=
EXTT0=
EXTT1=
EXTT2=
EXTT3=
EXTT4=
EXTT5=
EXTT6=
EXTT7=
EXTT8=
EXTT9=
EXTT10=
EXTT11=
EXTT12=
EXTT13=
EXTT14=
PLAYORDER=
